<mxfile host="app.diagrams.net" modified="2023-10-04T14:53:27.891Z" agent="Mozilla/5.0 (Windows NT 10.0; Win64; x64) AppleWebKit/537.36 (KHTML, like Gecko) Chrome/117.0.0.0 Safari/537.36" version="22.0.2" etag="6nkTaGsgUxsk2-LRfTpm" type="github">
  <diagram name="Page-1" id="riFuKk0LzoSG60_3XQo8">
    <mxGraphModel>
      <root>
        <mxCell id="0" />
        <mxCell id="1" parent="0" />
      </root>
    </mxGraphModel>
  </diagram>
</mxfile>
